<svg width="274" height="71" viewBox="0 0 274 71" fill="none" xmlns="http://www.w3.org/2000/svg">
<path d="M43.8631 52.6589L32.4568 53.8778C33.8628 54.9471 34.4397 55.3554 36.2271 56.5384C41.4453 60.0081 46.1444 62.4943 51.6632 64.7209C56.4443 66.6607 62.769 68.4229 68.0555 69.3108C75.6916 70.5948 79.052 70.8817 87.4531 70.9773C94.0373 71.0593 96.8923 70.9364 102.684 70.3216C108.039 69.7752 110.566 69.3654 115.798 68.2043C122.123 66.8246 126.467 65.5542 132.532 63.3276C137.258 61.5791 145.496 57.8362 146.261 57.0712L146.534 56.798L145.987 56.8936C145.687 56.9482 144.676 57.2214 143.733 57.522C133.092 60.8551 123.475 62.7948 110.676 64.1745C102.097 65.1034 89.5977 65.1034 81.1694 64.1745C71.9487 63.1637 65.7469 61.825 57.4688 59.0656C54.0127 57.9181 52.3462 57.2488 49.6278 55.9237C45.4751 53.902 44.109 53.1234 43.8631 52.6589Z" fill="#F6A015"/>
<path d="M43.8631 52.6589C43.7402 52.4267 43.3714 51.7437 43.0299 51.1426C43.0297 51.1422 43.0294 51.1418 43.0292 51.1414L32.4568 53.8778L43.8631 52.6589Z" fill="white"/>
<path d="M29.6018 0.258087C27.6757 0.0531807 5.28653 -0.110737 5.16358 0.0941658C5.1226 0.176128 4.986 1.29627 4.87672 2.60766C4.75378 3.90538 4.57619 5.9271 4.46691 7.08823C4.35763 8.24935 4.15272 10.5853 3.9888 12.2791C3.83854 13.973 3.64729 15.8718 3.57899 16.5138C3.51069 17.1559 3.29213 19.3961 3.10088 21.4998C2.90964 23.6035 2.44519 28.4256 2.0627 32.2231C1.69387 36.0207 1.27041 40.351 1.12014 41.8536C0.969879 43.3563 0.696674 46.1839 0.50543 48.1373C0.314186 50.0908 0.122942 51.9212 0.0819616 52.2081L0 52.7135L5.65535 52.6862L11.297 52.6452L11.3927 51.7573C11.4473 51.2656 11.5839 49.7902 11.7069 48.4789C11.8981 46.2522 12.2123 42.8508 12.6358 38.3429C12.7314 37.3048 12.868 36.4032 12.9499 36.3212C13.0865 36.1846 23.1542 36.1026 23.3727 36.2393C23.441 36.2802 23.8782 37.1955 24.3563 38.261C25.2715 40.351 25.6677 41.2116 27.5801 45.2687C28.2631 46.6894 29.1374 48.6018 29.5335 49.5034C29.9297 50.405 30.3941 51.4978 30.5854 51.9212C30.8859 52.6043 31.1044 52.8365 32.1836 53.6698C32.2782 53.7419 32.3691 53.8111 32.4567 53.8778L43.0292 51.1414C42.7005 50.5386 41.5265 48.2999 40.4207 46.1566C39.3279 44.0119 37.5384 40.5149 36.4456 38.3703C35.3528 36.2393 34.4512 34.4088 34.4512 34.3132C34.4512 34.2312 35.2025 33.7667 36.1314 33.3023C38.2351 32.2368 39.123 31.6357 40.2841 30.4746C43.7675 27.0322 45.516 22.2511 45.516 16.1996C45.516 12.9621 45.0243 10.7492 43.7812 8.46791C42.2785 5.66756 40.4754 3.94637 37.5111 2.45739C35.1752 1.28261 32.689 0.599594 29.6018 0.258087ZM29.192 9.99786C30.517 10.3804 31.9377 11.1453 32.6754 11.8693C35.5031 14.7107 35.2845 20.8441 32.2382 24.0953C31.5689 24.8193 31.1454 25.1198 30.1619 25.5979C28.0992 26.5951 27.6894 26.6361 20.4494 26.5951L14.1657 26.5541L14.1794 26.0077C14.193 25.4067 14.6028 20.9671 15.1219 15.6942C15.2995 13.8501 15.4907 11.7874 15.5454 11.118C15.5864 10.435 15.6683 9.83394 15.6957 9.7793C15.7366 9.711 18.6053 9.68368 22.075 9.711C27.4571 9.76564 28.4953 9.80662 29.192 9.99786Z" fill="white"/>
<path d="M156.041 2.4574C154.361 2.63498 152.845 3.05845 151.451 3.74147C149.881 4.5201 149.088 5.10749 148.31 6.09103C146.588 8.29034 145.837 10.8175 145.414 15.8855L145.304 17.1149L143.037 17.0739L140.769 17.0329L140.687 18.2487C140.633 18.9044 140.564 20.7212 140.51 22.2785C140.428 24.6417 140.455 25.1198 140.605 25.1335C140.714 25.1335 141.766 25.1335 142.955 25.1198C144.785 25.1061 145.113 25.1335 145.181 25.311C145.263 25.5296 145.031 44.3535 144.881 49.1892L144.785 52.0305H149.635H154.484L154.566 49.2575C154.621 47.7412 154.716 41.758 154.798 35.9797C154.894 30.1878 154.976 25.3793 155.003 25.2837C155.044 25.1608 155.987 25.1198 159.101 25.1198C162.202 25.1198 163.158 25.0788 163.199 24.9422C163.268 24.751 163.5 17.3198 163.445 17.1285C163.418 17.0329 161.956 16.9919 159.333 16.9919H155.276L155.235 16.3772C155.208 16.0494 155.263 15.2571 155.345 14.6287C155.632 12.4157 156.328 11.2546 157.776 10.5443C158.5 10.1891 158.678 10.1618 160.126 10.1618C161.451 10.1755 161.861 10.2301 162.694 10.517C163.636 10.8448 163.705 10.8585 163.828 10.6262C163.978 10.3394 164.893 5.20312 165.002 4.05565C165.084 3.15408 165.317 3.27702 162.858 2.85355C159.798 2.33446 158.186 2.23884 156.041 2.4574Z" fill="white"/>
<path d="M166.956 2.99013C166.888 3.03111 166.819 14.055 166.792 27.4967L166.751 51.9212L171.573 51.8666C174.578 51.8393 176.45 51.771 176.518 51.689C176.6 51.5661 176.86 19.1229 176.86 7.29312V2.92183H171.969C169.264 2.92183 167.011 2.94915 166.956 2.99013Z" fill="white"/>
<path d="M120.825 7.33411C120.716 7.40241 120.648 8.72746 120.593 11.801C120.538 14.2052 120.47 16.4319 120.429 16.746L120.361 17.3334H117.847H115.347L115.238 20.2294C115.183 21.8277 115.129 23.5625 115.129 24.0953L115.115 25.0515H117.574H120.033L120.006 27.1688C119.992 28.33 119.869 31.786 119.746 34.8459C119.473 41.717 119.527 44.9682 119.951 46.4298C120.648 48.793 121.836 50.2274 123.953 51.2656C126.33 52.4403 129.404 52.9868 132.245 52.7272C134.608 52.5086 138.624 51.5251 138.775 51.129C138.857 50.9241 137.067 43.8207 136.903 43.6431C136.821 43.5612 136.275 43.6704 135.51 43.9163C134.499 44.2305 133.994 44.3125 133.01 44.3125C131.535 44.3125 130.783 44.1076 130.114 43.5202C129.322 42.8235 129.213 42.4137 129.24 40.0778C129.281 36.3759 129.759 25.3793 129.896 25.2427C129.964 25.1744 131.753 25.1061 133.898 25.0925L137.778 25.0515L137.86 24.6963C137.914 24.5051 137.982 22.7429 138.01 20.7758L138.064 17.1968L134.062 17.1558C131.876 17.1285 130.032 17.0739 129.991 17.0329C129.95 16.9919 129.991 15.9537 130.059 14.7243C130.141 13.4949 130.223 11.3229 130.237 9.9159L130.278 7.33411L125.634 7.27947C123.079 7.25215 120.921 7.27947 120.825 7.33411Z" fill="white"/>
<path d="M62.3865 16.063C57.783 16.6231 54.5728 18.0028 51.39 20.7758C47.2372 24.3821 45.2019 29.5321 45.4204 35.8431C45.598 40.6925 47.2509 44.6676 50.3245 47.6046C53.4936 50.6372 59.0534 52.577 64.5311 52.577C67.5774 52.577 72.0989 51.4568 74.9539 50.0088C75.9238 49.517 78.1641 48.0691 78.41 47.7685C78.5603 47.5773 78.3007 47.1675 76.6615 44.9135C75.596 43.4519 74.5715 42.0039 74.3665 41.6897C74.1616 41.3619 73.9158 41.1023 73.8201 41.1023C73.7245 41.1023 73.2054 41.4302 72.659 41.84C69.8996 43.9027 66.5802 44.8589 63.4247 44.5037C59.914 44.1076 57.2502 42.4137 55.9388 39.7363C55.6246 39.0943 55.3241 38.3429 55.2695 38.0561L55.1875 37.5506L66.0201 37.537C78.7242 37.5233 81.4562 37.4687 81.6065 37.2365C81.8114 36.9223 81.7294 31.2533 81.5109 29.9555C80.3771 23.5079 75.7326 18.3716 69.4898 16.7051C67.1676 16.0904 64.2853 15.8308 62.3865 16.063ZM66.2114 23.9587C69.2576 24.6007 71.3203 26.6497 72.1809 29.8736C72.4268 30.8434 72.4541 31.0347 72.2765 31.144C72.1672 31.2123 68.5883 31.2533 63.7525 31.2259L55.4197 31.1986L55.3788 30.8981C55.3241 30.5293 55.7886 29.4091 56.4989 28.2343C57.1136 27.2098 58.2474 25.9941 59.149 25.3657C59.9823 24.7919 61.6078 24.068 62.4001 23.9177C63.4247 23.7128 65.1459 23.7401 66.2114 23.9587Z" fill="white"/>
<path d="M197.323 16.2406C192.692 16.9646 189.236 18.6448 186.285 21.6228C184.059 23.863 182.597 26.6907 181.695 30.5156C181.408 31.7177 181.367 32.2231 181.367 34.6137C181.367 36.772 181.422 37.5916 181.627 38.5069C182.597 43.0147 184.359 46.1293 187.241 48.4379C190.793 51.2792 195.287 52.7682 200.355 52.7545C202.336 52.7545 202.923 52.7135 204.412 52.3994C206.885 51.8803 208.21 51.4295 209.849 50.5689C213.975 48.3969 216.652 45.2277 218.114 40.7745C218.892 38.3976 219.179 36.5398 219.179 33.7941C219.193 26.5814 215.791 20.8851 209.767 18.0164C206.079 16.2543 201.462 15.5849 197.323 16.2406ZM203.074 24.5051C205.369 25.1061 207.213 26.6088 208.21 28.6851C208.879 30.1058 209.139 31.0757 209.316 32.9061C209.658 36.3485 208.729 39.8046 206.912 41.8809C205.054 43.9983 201.817 45.0911 198.907 44.5857C197.405 44.3261 196.366 43.9846 195.397 43.3972C192.159 41.4438 190.575 36.2939 191.695 31.4035C192.569 27.5786 195.533 24.7919 199.262 24.2455C200 24.1362 202.254 24.2865 203.074 24.5051Z" fill="white"/>
<path d="M96.1137 16.3089C91.4419 17.0192 88.0541 19 86.2373 22.0735C83.9697 25.9257 84.3659 31.3898 87.1252 34.0809C88.9694 35.8977 91.155 36.7447 97.63 38.1653C99.2146 38.5205 100.867 38.9303 101.305 39.0669C103.299 39.7499 104.023 40.8428 103.572 42.4956C103.108 44.1485 100.826 45.0774 97.7119 44.8725C96.0864 44.7633 93.969 44.3808 92.6576 43.9573C91.4829 43.5885 88.3956 42.0722 87.535 41.4575C87.1662 41.1979 86.811 41.0067 86.7564 41.034C86.7018 41.075 86.128 42.0449 85.4723 43.1787C84.803 44.3261 83.8741 45.8561 83.4096 46.5801C82.9315 47.2904 82.5354 47.9461 82.5354 48.0144C82.5354 48.3013 87.1799 50.4049 89.3655 51.1289C92.9718 52.3174 97.8076 52.8365 101.004 52.3857C107.903 51.4158 112.028 48.11 112.943 42.8235C113.476 39.8046 112.684 36.7037 110.853 34.682C108.968 32.6056 106.769 31.663 100.772 30.379C96.9196 29.5457 95.8541 29.2179 95.1438 28.6168C93.4226 27.1278 94.01 25.0378 96.3869 24.2045C96.9606 23.9996 97.507 23.9587 99.4058 23.9723C101.441 23.986 101.892 24.027 103.026 24.3275C104.46 24.7236 107.233 25.8711 108.012 26.3902C108.299 26.5814 108.613 26.7044 108.722 26.6634C108.818 26.6224 109.255 25.994 109.678 25.27C110.088 24.546 110.908 23.1937 111.495 22.2511C112.069 21.3086 112.588 20.4616 112.643 20.366C112.875 19.9562 112.028 19.4098 109.405 18.3033C105.389 16.5958 99.7473 15.7488 96.1137 16.3089Z" fill="white"/>
<path d="M219.384 17.2105C219.288 17.2651 219.466 18.0028 219.862 19.1912C220.204 20.2431 220.777 22.0462 221.119 23.2073C221.474 24.3685 222.143 26.5268 222.622 27.9884C223.4 30.3927 225.463 36.9769 227.416 43.288C227.826 44.5993 228.536 46.9626 228.987 48.5472C229.452 50.1181 229.889 51.4978 229.957 51.5797C230.066 51.7163 231.214 51.7573 234.847 51.7573C238.481 51.7573 239.629 51.7163 239.738 51.5797C239.806 51.4978 240.038 50.8557 240.243 50.1864C240.762 48.4515 243.344 40.2281 244.205 37.5506C244.601 36.3076 245.093 34.7366 245.298 34.0673C245.83 32.3188 246.322 31.1303 246.527 31.1303C246.623 31.1303 246.787 31.4582 246.896 31.8406C247.019 32.2368 247.852 34.8322 248.754 37.6189C250.133 41.8673 251.909 47.3997 252.975 50.8557L253.221 51.6617L258.002 51.6344C262.072 51.6207 262.81 51.5934 262.933 51.4158C263.015 51.3065 263.384 50.1864 263.739 48.916C264.094 47.6592 264.886 45.1321 265.487 43.288C266.608 39.8319 267.427 37.2501 269.818 29.6277C270.583 27.1825 271.758 23.4396 272.427 21.3086C273.11 19.1776 273.629 17.3471 273.588 17.2515C273.533 17.1285 272.441 17.0875 268.725 17.0875L263.93 17.0739L263.807 17.3744C263.725 17.5383 263.001 20.1884 262.168 23.2757C261.348 26.3492 260.611 29.0949 260.542 29.3545C260.46 29.614 259.969 31.4855 259.436 33.5209C258.193 38.22 257.933 39.0806 257.756 39.0123C257.578 38.9576 257.51 38.7664 255.625 32.428C253.357 24.8602 251.431 18.6175 250.98 17.4291C250.898 17.1968 250.625 17.1695 246.472 17.1695C244.055 17.1695 242.005 17.2242 241.951 17.2788C241.883 17.3471 241.432 18.7814 240.94 20.4753C238.713 28.2207 238.263 29.7643 237.935 30.7888C237.743 31.3899 237.183 33.316 236.692 35.0645C235.749 38.3976 235.558 38.944 235.38 38.8484C235.244 38.7527 234.861 37.537 234.233 35.2284C233.577 32.8105 232.621 29.4228 232.02 27.3737C231.76 26.4722 231.159 24.3821 230.681 22.7292C229.479 18.5355 229.097 17.3198 228.919 17.2515C228.659 17.1695 219.534 17.1285 219.384 17.2105Z" fill="white"/>
</svg>
