<svg width="22" height="22" viewBox="0 0 22 22" fill="none" xmlns="http://www.w3.org/2000/svg">
<g clip-path="url(#clip0_76_647)">
<path d="M14.6548 1.83179L12.5482 3.93841C12.0447 4.45204 11.7627 5.1426 11.7627 5.86184C11.7627 6.58107 12.0447 7.27164 12.5482 7.78527L14.1968 9.43393C14.7105 9.93739 15.401 10.2194 16.1203 10.2194C16.8395 10.2194 17.5301 9.93739 18.0437 9.43393L20.1503 7.32731" stroke="#5F5E5A" stroke-width="1.83184" stroke-linecap="round" stroke-linejoin="round"/>
<path d="M13.7388 13.7387L3.02254 3.02246C2.65698 3.38064 2.36656 3.80815 2.1683 4.27998C1.97004 4.7518 1.86792 5.25844 1.86792 5.77022C1.86792 6.28201 1.97004 6.78865 2.1683 7.26047C2.36656 7.73229 2.65698 8.15981 3.02254 8.51799L9.70876 15.2042C10.3499 15.8454 11.5406 15.8454 12.2733 15.2042L13.7388 13.7387ZM13.7388 13.7387L20.1503 20.1502" stroke="#5F5E5A" stroke-width="1.83184" stroke-linecap="round" stroke-linejoin="round"/>
<path d="M1.92334 19.9671L7.78523 14.1968" stroke="#5F5E5A" stroke-width="1.83184" stroke-linecap="round" stroke-linejoin="round"/>
<path d="M17.4024 4.57959L10.991 10.991" stroke="#5F5E5A" stroke-width="1.83184" stroke-linecap="round" stroke-linejoin="round"/>
</g>
<defs>
<clipPath id="clip0_76_647">
<rect width="21.9821" height="21.9821" fill="white"/>
</clipPath>
</defs>
</svg>
