<svg width="20" height="20" viewBox="0 0 20 20" fill="none" xmlns="http://www.w3.org/2000/svg">
<g clip-path="url(#clip0_76_415)">
<path d="M8.55249 17.4916C8.69871 17.7448 8.909 17.9551 9.16223 18.1013C9.41547 18.2475 9.70272 18.3244 9.99513 18.3244C10.2875 18.3244 10.5748 18.2475 10.828 18.1013C11.0813 17.9551 11.2916 17.7448 11.4378 17.4916" stroke="#1A1A2E" stroke-width="1.66587" stroke-linecap="round" stroke-linejoin="round"/>
<path d="M2.71713 12.7656C2.60832 12.8848 2.53651 13.0331 2.51044 13.1925C2.48437 13.3518 2.50517 13.5152 2.57029 13.663C2.63542 13.8107 2.74207 13.9363 2.87727 14.0245C3.01247 14.1127 3.1704 14.1598 3.33184 14.1599H16.6588C16.8202 14.16 16.9782 14.1131 17.1134 14.025C17.2487 13.937 17.3555 13.8115 17.4208 13.6639C17.4861 13.5163 17.5071 13.3529 17.4812 13.1935C17.4554 13.0342 17.3838 12.8858 17.2751 12.7664C16.1673 11.6244 14.9929 10.4109 14.9929 6.66349C14.9929 5.33805 14.4664 4.06689 13.5291 3.12966C12.5919 2.19242 11.3207 1.66589 9.9953 1.66589C8.66986 1.66589 7.3987 2.19242 6.46147 3.12966C5.52423 4.06689 4.9977 5.33805 4.9977 6.66349C4.9977 10.4109 3.82243 11.6244 2.71713 12.7656Z" stroke="#1A1A2E" stroke-width="1.66587" stroke-linecap="round" stroke-linejoin="round"/>
</g>
<defs>
<clipPath id="clip0_76_415">
<rect width="19.9904" height="19.9904" fill="white"/>
</clipPath>
</defs>
</svg>
