<svg width="48" height="48" viewBox="0 0 48 48" fill="none" xmlns="http://www.w3.org/2000/svg">
<path d="M19.8675 30.9899C19.689 30.298 19.3284 29.6666 18.8231 29.1613C18.3178 28.656 17.6864 28.2954 16.9945 28.1169L4.72845 24.9539C4.51918 24.8945 4.335 24.7684 4.20385 24.5949C4.0727 24.4213 4.00174 24.2097 4.00174 23.9922C4.00174 23.7747 4.0727 23.5631 4.20385 23.3895C4.335 23.2159 4.51918 23.0899 4.72845 23.0305L16.9945 19.8655C17.6861 19.6872 18.3174 19.3269 18.8227 18.822C19.3279 18.3171 19.6887 17.686 19.8675 16.9945L23.0305 4.72846C23.0893 4.51837 23.2152 4.33327 23.389 4.20142C23.5628 4.06957 23.775 3.9982 23.9932 3.9982C24.2114 3.9982 24.4235 4.06957 24.5974 4.20142C24.7712 4.33327 24.8971 4.51837 24.9559 4.72846L28.1168 16.9945C28.2953 17.6864 28.656 18.3178 29.1613 18.8231C29.6666 19.3284 30.298 19.689 30.9899 19.8675L43.2559 23.0285C43.4669 23.0867 43.6529 23.2125 43.7854 23.3865C43.918 23.5606 43.9898 23.7734 43.9898 23.9922C43.9898 24.211 43.918 24.4238 43.7854 24.5978C43.6529 24.7719 43.4669 24.8977 43.2559 24.9559L30.9899 28.1169C30.298 28.2954 29.6666 28.656 29.1613 29.1613C28.656 29.6666 28.2953 30.298 28.1168 30.9899L24.9539 43.2559C24.8951 43.466 24.7692 43.6511 24.5954 43.783C24.4215 43.9148 24.2094 43.9862 23.9912 43.9862C23.773 43.9862 23.5608 43.9148 23.387 43.783C23.2132 43.6511 23.0873 43.466 23.0285 43.2559L19.8675 30.9899Z" stroke="white" stroke-width="3.9987" stroke-linecap="round" stroke-linejoin="round"/>
<path d="M39.987 5.99805V13.9954" stroke="white" stroke-width="3.9987" stroke-linecap="round" stroke-linejoin="round"/>
<path d="M43.9857 9.99673H35.9883" stroke="white" stroke-width="3.9987" stroke-linecap="round" stroke-linejoin="round"/>
<path d="M7.99741 33.989V37.9877" stroke="white" stroke-width="3.9987" stroke-linecap="round" stroke-linejoin="round"/>
<path d="M9.99675 35.9883H5.99805" stroke="white" stroke-width="3.9987" stroke-linecap="round" stroke-linejoin="round"/>
</svg>
