<svg width="48" height="48" viewBox="0 0 48 48" fill="none" xmlns="http://www.w3.org/2000/svg">
<path d="M21.9928 43.4459C22.6007 43.7968 23.2903 43.9816 23.9922 43.9816C24.6941 43.9816 25.3837 43.7968 25.9915 43.4459L39.987 35.4485C40.5943 35.0979 41.0987 34.5937 41.4496 33.9866C41.8005 33.3795 41.9856 32.6908 41.9863 31.9896V15.9948C41.9856 15.2936 41.8005 14.6049 41.4496 13.9978C41.0987 13.3907 40.5943 12.8865 39.987 12.5359L25.9915 4.53853C25.3837 4.18757 24.6941 4.00281 23.9922 4.00281C23.2903 4.00281 22.6007 4.18757 21.9928 4.53853L7.9974 12.5359C7.39012 12.8865 6.88572 13.3907 6.5348 13.9978C6.18387 14.6049 5.99877 15.2936 5.99805 15.9948V31.9896C5.99877 32.6908 6.18387 33.3795 6.5348 33.9866C6.88572 34.5937 7.39012 35.0979 7.9974 35.4485L21.9928 43.4459Z" stroke="white" stroke-width="3.9987" stroke-linecap="round" stroke-linejoin="round"/>
<path d="M23.9922 43.9857V23.9922" stroke="white" stroke-width="3.9987" stroke-linecap="round" stroke-linejoin="round"/>
<path d="M6.57788 13.9955L23.9922 23.9922L41.4066 13.9955" stroke="white" stroke-width="3.9987" stroke-linecap="round" stroke-linejoin="round"/>
<path d="M14.9951 8.53723L32.9893 18.8339" stroke="white" stroke-width="3.9987" stroke-linecap="round" stroke-linejoin="round"/>
</svg>
